<svg xmlns="http://www.w3.org/2000/svg" width="17.998" height="18" viewBox="0 0 17.998 18"><path d="M19.739,4.448,17.552,2.261a.9.9,0,0,0-1.269,0L11.261,7.283A.9.9,0,0,0,11,7.922V10.1a.9.9,0,0,0,.9.9h2.178a.9.9,0,0,0,.639-.261l5.022-5.022a.9.9,0,0,0,0-1.269ZM13.7,9.2h-.9V8.3l4.122-4.122.9.9ZM17.3,11h0a.9.9,0,0,0-.9.9,6.3,6.3,0,0,1-6.3,6.3H5.069l.576-.567a.9.9,0,0,0,0-1.278A6.3,6.3,0,0,1,10.1,5.6a.9.9,0,1,0,0-1.8h0A8.1,8.1,0,0,0,3.8,16.957l-1.539,1.5A.906.906,0,0,0,2.9,20h7.2a8.1,8.1,0,0,0,8.1-8.1.9.9,0,0,0-.9-.9Z" transform="translate(-2.002 -1.999)"/></svg>