<svg xmlns="http://www.w3.org/2000/svg" width="16" height="18" viewBox="0 0 16 18"><defs></defs><path class="a" d="M18.111,5.6H14.556V4.7A2.683,2.683,0,0,0,11.889,2H10.111A2.683,2.683,0,0,0,7.444,4.7v.9H3.889a.9.9,0,0,0,0,1.8h.889v9.9A2.683,2.683,0,0,0,7.444,20h7.111a2.683,2.683,0,0,0,2.667-2.7V7.4h.889a.9.9,0,0,0,0-1.8ZM9.222,4.7a.894.894,0,0,1,.889-.9h1.778a.894.894,0,0,1,.889.9v.9H9.222Zm6.222,12.6a.894.894,0,0,1-.889.9H7.444a.894.894,0,0,1-.889-.9V7.4h8.889Z" transform="translate(-3 -2)"/></svg>