<svg xmlns="http://www.w3.org/2000/svg" width="15" height="18" viewBox="0 0 15 18"><path d="M13.2,9.919a2.791,2.791,0,0,0-.382-3.679,2.7,2.7,0,0,0-3.648,0,2.791,2.791,0,0,0-.382,3.679,4.14,4.14,0,0,0-.988.895.93.93,0,0,0,.163,1.293.9.9,0,0,0,1.275-.165,2.3,2.3,0,0,1,1.809-.895h0a2.3,2.3,0,0,1,1.809.895.875.875,0,0,0,1.479-.175.9.9,0,0,0-.1-.943,4.137,4.137,0,0,0-1.032-.9ZM11,9.266h0a.975.975,0,1,1,.962-1.011.983.983,0,0,1-.269.713.955.955,0,0,1-.693.3Zm7.464-.447a7.6,7.6,0,0,0-4.24-6.137,7.412,7.412,0,0,0-7.372.528A7.667,7.667,0,0,0,5.706,14.929l4.676,4.75a.874.874,0,0,0,1.253,0l4.659-4.75A7.629,7.629,0,0,0,18.464,8.819Zm-3.406,4.848L11,17.782,6.941,13.667a5.9,5.9,0,0,1,.9-8.99,5.644,5.644,0,0,1,6.317,0,5.893,5.893,0,0,1,.9,8.99Z" transform="translate(-3.5 -1.943)"/></svg>